# xmcd
#
# Track frame offsets: 
#        150
#        15660
#        35934
#        55247
#        78198
#        95871
#        120311
#        143973
#        165729
#        179123
#        200765
#        222266
#        244087
#        267169
#        288488
#        305273
#        317754
#        333772
#
# Disc length: 4717 seconds
#
# Revision: 2
# Processed by: cddbd v1.5.2PL0 Copyright (c) Steve Scherf et al.
# Submitted via: ExactAudioCopy v0.99pb5
#
DISCID=0e126b12
DTITLE=ERIC CLAPTON - THE COLLECTOR´S SERIES
DYEAR=2001
DGENRE=Blues
TTITLE0=Reptile
TTITLE1=Got You On My Mind
TTITLE2=Travelin' Light
TTITLE3=Believe In Life
TTITLE4=Come Back Baby
TTITLE5=Broken Down
TTITLE6=Find Myself
TTITLE7=I Ain't Gonna Stand For It
TTITLE8=I Want A Little Girl
TTITLE9=Seconde Nature
TTITLE10=Don't Let Me Be Lonely Tonight
TTITLE11=Modern Girl
TTITLE12=Superman Inside
TTITLE13=Son And Sylvia
TTITLE14=I Get Lost (Morales Mix)
TTITLE15=I Wanna Be (Feat. B. B. King)
TTITLE16=Forever Man (How Many Times) (Feat. Beatchuggers)
TTITLE17=I Wanna Be (Edit)
EXTD=
EXTT0=
EXTT1=
EXTT2=
EXTT3=
EXTT4=
EXTT5=
EXTT6=
EXTT7=
EXTT8=
EXTT9=
EXTT10=
EXTT11=
EXTT12=
EXTT13=
EXTT14=
EXTT15=
EXTT16=
EXTT17=
PLAYORDER=
